<svg width="100" height="131" viewBox="0 0 100 131" fill="none" xmlns="http://www.w3.org/2000/svg">
<circle cx="5.88235" cy="5.88235" r="5.88235" fill="#D9E1E7"/>
<circle cx="23.5288" cy="5.88235" r="5.88235" fill="#D9E1E7"/>
<circle cx="41.1773" cy="5.88235" r="5.88235" fill="#D9E1E7"/>
<circle cx="58.8238" cy="5.88235" r="5.88235" fill="#D9E1E7"/>
<circle cx="76.4702" cy="5.88235" r="5.88235" fill="#D9E1E7"/>
<circle cx="94.1167" cy="5.88235" r="5.88235" fill="#D9E1E7"/>
<circle cx="5.88235" cy="25.648" r="5.88235" fill="#D9E1E7"/>
<circle cx="23.5288" cy="25.648" r="5.88235" fill="#D9E1E7"/>
<circle cx="41.1773" cy="25.648" r="5.88235" fill="#D9E1E7"/>
<circle cx="58.8238" cy="25.648" r="5.88235" fill="#D9E1E7"/>
<circle cx="76.4702" cy="25.648" r="5.88235" fill="#D9E1E7"/>
<circle cx="94.1167" cy="25.648" r="5.88235" fill="#D9E1E7"/>
<circle cx="5.88235" cy="45.4136" r="5.88235" fill="#D9E1E7"/>
<circle cx="23.5288" cy="45.4136" r="5.88235" fill="#D9E1E7"/>
<circle cx="41.1773" cy="45.4136" r="5.88235" fill="#D9E1E7"/>
<circle cx="58.8238" cy="45.4136" r="5.88235" fill="#D9E1E7"/>
<circle cx="76.4702" cy="45.4136" r="5.88235" fill="#D9E1E7"/>
<circle cx="94.1167" cy="45.4136" r="5.88235" fill="#D9E1E7"/>
<circle cx="5.88235" cy="65.1753" r="5.88235" fill="#D9E1E7"/>
<circle cx="23.5288" cy="65.1753" r="5.88235" fill="#D9E1E7"/>
<circle cx="41.1773" cy="65.1753" r="5.88235" fill="#D9E1E7"/>
<circle cx="58.8238" cy="65.1753" r="5.88235" fill="#D9E1E7"/>
<circle cx="76.4702" cy="65.1753" r="5.88235" fill="#D9E1E7"/>
<circle cx="94.1167" cy="65.1753" r="5.88235" fill="#D9E1E7"/>
<circle cx="5.88235" cy="84.9409" r="5.88235" fill="#D9E1E7"/>
<circle cx="23.5288" cy="84.9409" r="5.88235" fill="#D9E1E7"/>
<circle cx="41.1773" cy="84.9409" r="5.88235" fill="#D9E1E7"/>
<circle cx="58.8238" cy="84.9409" r="5.88235" fill="#D9E1E7"/>
<circle cx="76.4702" cy="84.9409" r="5.88235" fill="#D9E1E7"/>
<circle cx="94.1167" cy="84.9409" r="5.88235" fill="#D9E1E7"/>
<circle cx="5.88235" cy="104.707" r="5.88235" fill="#D9E1E7"/>
<circle cx="23.5288" cy="104.707" r="5.88235" fill="#D9E1E7"/>
<circle cx="41.1773" cy="104.707" r="5.88235" fill="#D9E1E7"/>
<circle cx="58.8238" cy="104.707" r="5.88235" fill="#D9E1E7"/>
<circle cx="76.4702" cy="104.707" r="5.88235" fill="#D9E1E7"/>
<circle cx="94.1167" cy="104.707" r="5.88235" fill="#D9E1E7"/>
<circle cx="5.88235" cy="124.472" r="5.88235" fill="#D9E1E7"/>
<circle cx="23.5288" cy="124.472" r="5.88235" fill="#D9E1E7"/>
<circle cx="41.1773" cy="124.472" r="5.88235" fill="#D9E1E7"/>
<circle cx="58.8238" cy="124.472" r="5.88235" fill="#D9E1E7"/>
<circle cx="76.4702" cy="124.472" r="5.88235" fill="#D9E1E7"/>
<circle cx="94.1167" cy="124.472" r="5.88235" fill="#D9E1E7"/>
</svg>
